{"title":"The.Last.Ship.S02E08.HDTV.480p.x264.AAC-VYTO [P2PDL]","uid":12186743,"size":154239398,"categoryP":"video","categoryS":"hd___tv_shows","magnet":"?xt=urn:btih:9dc772ad23a248cfd5a522a8df3015ae7a51f790&amp;dn=The.Last.Ship.S02E08.HDTV.480p.x264.AAC-VYTO+%5BP2PDL%5D&amp;tr=udp%3A%2F%2Ftracker.openbittorrent.com%3A80&amp;tr=udp%3A%2F%2Fopen.demonii.com%3A1337&amp;tr=udp%3A%2F%2Ftracker.coppersurfer.tk%3A6969&amp;tr=udp%3A%2F%2Fexodus.desync.com%3A6969","seeders":2,"leechers":0,"uploader":"ValidusVyto","files":6,"time":1438581088,"description":"____    ____ ____    ____ .___________.  ______   \n     /   /      /   / |           | /  __    \n    /   /      /   /  `---|  |----`|  |  |  | \n        /     _    _/       |  |     |  |  |  | \n       /        |  |         |  |     |  `--'  | \n    __/         |__|         |__|      ______/  \n                                                  \nPresenting Small Encodes with quality for years!\n                                                                                                   \n                                                                                                   \n\nThe.Last.Ship.S02E08.HDTV.480p.x264.AAC-VYTO\n\n\nGeneral\nFormat                         : MPEG-4\nFile size                      : 141 MiB\nDuration                       : 42mn 17s\nOverall bit rate               : 465 Kbps\n\nVideo\nFormat                         : AVC\nBit rate                       : 430 Kbps\nWidth                          : 720 pixels\nHeight                         : 400 pixels\nDisplay aspect ratio           : 16:9\nFrame rate mode                : Constant\nFrame rate                     : 23.976 fps\nBit depth                      : 8 bits\nStream size                    : 130 MiB (92%)\nWriting library                : x264 core 146 r2538 121396c\n\nAudio\nFormat                         : AAC\nBit rate mode                  : Variable\nBit rate                       : 32.0 Kbps\nChannel(s)                     : 2 channels\nChannel positions              : Front: L R\nSampling rate                  : 48.0 KHz\nStream size                    : 9.68 MiB (7%)\n\n\nScreenshots:\n &lt;a href=&quot;\nhttp://ititli.com/gd&quot; rel=&quot;nofollow&quot; target=&quot;_NEW&quot;&gt;\nhttp://ititli.com/gd&lt;/a&gt; &lt;a href=&quot;\nhttp://ititli.com/g0&quot; rel=&quot;nofollow&quot; target=&quot;_NEW&quot;&gt;\nhttp://ititli.com/g0&lt;/a&gt; &lt;a href=&quot;\nhttp://ititli.com/gA&quot; rel=&quot;nofollow&quot; target=&quot;_NEW&quot;&gt;\nhttp://ititli.com/gA&lt;/a&gt; &lt;a href=&quot;\nhttp://ititli.com/gl&quot; rel=&quot;nofollow&quot; target=&quot;_NEW&quot;&gt;\nhttp://ititli.com/gl&lt;/a&gt; &lt;a href=&quot;\nhttp://ititli.com/gm&quot; rel=&quot;nofollow&quot; target=&quot;_NEW&quot;&gt;\nhttp://ititli.com/gm&lt;/a&gt; &lt;a href=&quot;\nhttp://ititli.com/gx&quot; rel=&quot;nofollow&quot; target=&quot;_NEW&quot;&gt;\nhttp://ititli.com/gx&lt;/a&gt; &lt;a href=&quot;\nhttp://ititli.com/g7&quot; rel=&quot;nofollow&quot; target=&quot;_NEW&quot;&gt;\nhttp://ititli.com/g7&lt;/a&gt; &lt;a href=&quot;\nhttp://ititli.com/gC&quot; rel=&quot;nofollow&quot; target=&quot;_NEW&quot;&gt;\nhttp://ititli.com/gC&lt;/a&gt; &lt;a href=&quot;\nhttp://ititli.com/gF&quot; rel=&quot;nofollow&quot; target=&quot;_NEW&quot;&gt;\nhttp://ititli.com/gF&lt;/a&gt; &lt;a href=&quot;\nhttp://ititli.com/gJ&quot; rel=&quot;nofollow&quot; target=&quot;_NEW&quot;&gt;\nhttp://ititli.com/gJ&lt;/a&gt; &lt;a href=&quot;\nhttp://ititli.com/g5&quot; rel=&quot;nofollow&quot; target=&quot;_NEW&quot;&gt;\nhttp://ititli.com/g5&lt;/a&gt; &lt;a href=&quot;\nhttp://ititli.com/gB&quot; rel=&quot;nofollow&quot; target=&quot;_NEW&quot;&gt;\nhttp://ititli.com/gB&lt;/a&gt;\n\n----------------------------------------------------------------------------------------------------\n\n\nEncoder Notes: Looking For Early Access To Anything You Can Provide DVDScr, R5, DVDR, BluRay, Direct\nAudio, Music Releases and Seedboxes. If You Got anything to offer please contact us.\n\nSupport us by donating BC - 1FgwdzPsd1y25Gea8wP1qni35uGCtmkRCD","torrent":{"xt":"urn:btih:9dc772ad23a248cfd5a522a8df3015ae7a51f790","amp;dn":"The.Last.Ship.S02E08.HDTV.480p.x264.AAC-VYTO+%5BP2PDL%5D","amp;tr":["udp%3A%2F%2Ftracker.openbittorrent.com%3A80","udp%3A%2F%2Fopen.demonii.com%3A1337","udp%3A%2F%2Ftracker.coppersurfer.tk%3A6969","udp%3A%2F%2Fexodus.desync.com%3A6969"],"infoHash":"9dc772ad23a248cfd5a522a8df3015ae7a51f790","infoHashBuffer":{"type":"Buffer","data":[157,199,114,173,35,162,72,207,213,165,34,168,223,48,21,174,122,81,247,144]},"announce":[],"urlList":[]}}